<?xml version="1.0" encoding="UTF-8" standalone="no"?>
<!DOCTYPE svg PUBLIC "-//W3C//DTD SVG 1.1//EN"
 "http://www.w3.org/Graphics/SVG/1.1/DTD/svg11.dtd">
<!-- Generated by graphviz version 2.47.0 (20210316.0004)
 -->
<!-- Title: dependencies Pages: 1 -->
<svg width="2256pt" height="284pt"
 viewBox="0.00 0.00 2256.00 284.00" xmlns="http://www.w3.org/2000/svg" xmlns:xlink="http://www.w3.org/1999/xlink">
<g id="graph0" class="graph" transform="scale(1 1) rotate(0) translate(4 280)">
<title>dependencies</title>
<polygon fill="white" stroke="transparent" points="-4,4 -4,-280 2252,-280 2252,4 -4,4"/>
<text text-anchor="start" x="1103.01" y="-42.4" font-family="Times-12" font-weight="bold" font-size="14.00">Legend</text>
<polygon fill="#ffffb3" stroke="transparent" points="890,-10 890,-30 910,-30 910,-10 890,-10"/>
<text text-anchor="start" x="913.63" y="-15.4" font-family="Times-12" font-size="14.00"> &#160;Declarations</text>
<polygon fill="#8dd3c7" stroke="transparent" points="1003,-10 1003,-30 1023,-30 1023,-10 1003,-10"/>
<text text-anchor="start" x="1026.73" y="-15.4" font-family="Times-12" font-size="14.00"> &#160;Module</text>
<polygon fill="#80b1d3" stroke="transparent" points="1089,-10 1089,-30 1109,-30 1109,-10 1089,-10"/>
<text text-anchor="start" x="1112.78" y="-15.4" font-family="Times-12" font-size="14.00"> &#160;Bootstrap</text>
<polygon fill="#fdb462" stroke="transparent" points="1186,-10 1186,-30 1206,-30 1206,-10 1186,-10"/>
<text text-anchor="start" x="1209.67" y="-15.4" font-family="Times-12" font-size="14.00"> &#160;Providers</text>
<polygon fill="#fb8072" stroke="transparent" points="1282,-10 1282,-30 1302,-30 1302,-10 1282,-10"/>
<text text-anchor="start" x="1305.73" y="-15.4" font-family="Times-12" font-size="14.00"> &#160;Exports</text>
<g id="clust1" class="cluster">
<title>cluster_AppModule</title>
<polygon fill="none" stroke="black" stroke-dasharray="1,5" points="8,-70 8,-268 2240,-268 2240,-70 8,-70"/>
</g>
<g id="clust15" class="cluster">
<title>cluster_AppModule_imports</title>
<polygon fill="none" stroke="black" points="2088,-78 2088,-130 2232,-130 2232,-78 2088,-78"/>
</g>
<g id="clust17" class="cluster">
<title>cluster_AppModule_bootstrap</title>
<polygon fill="none" stroke="black" points="1147,-208 1147,-260 1271,-260 1271,-208 1147,-208"/>
</g>
<g id="clust2" class="cluster">
<title>cluster_AppModule_declarations</title>
<polygon fill="none" stroke="black" points="16,-78 16,-130 2080,-130 2080,-78 16,-78"/>
</g>
<!-- AppComponent -->
<g id="node1" class="node">
<title>AppComponent</title>
<polygon fill="#ffffb3" stroke="black" points="2071.94,-122 1966.06,-122 1966.06,-86 2071.94,-86 2071.94,-122"/>
<text text-anchor="middle" x="2019" y="-99.8" font-family="Times,serif" font-size="14.00">AppComponent</text>
</g>
<!-- AppModule -->
<g id="node13" class="node">
<title>AppModule</title>
<polygon fill="#8dd3c7" stroke="black" points="1250.66,-187 1247.66,-191 1226.66,-191 1223.66,-187 1167.34,-187 1167.34,-151 1250.66,-151 1250.66,-187"/>
<text text-anchor="middle" x="1209" y="-164.8" font-family="Times,serif" font-size="14.00">AppModule</text>
</g>
<!-- AppComponent&#45;&gt;AppModule -->
<g id="edge1" class="edge">
<title>AppComponent&#45;&gt;AppModule</title>
<path fill="none" stroke="black" d="M2019,-122.04C2019,-143.66 2019,-177 2019,-177 2019,-177 1260.84,-177 1260.84,-177"/>
<polygon fill="black" stroke="black" points="1260.84,-173.5 1250.84,-177 1260.84,-180.5 1260.84,-173.5"/>
</g>
<!-- CreateProjectComponent -->
<g id="node2" class="node">
<title>CreateProjectComponent</title>
<polygon fill="#ffffb3" stroke="black" points="1948.52,-122 1791.48,-122 1791.48,-86 1948.52,-86 1948.52,-122"/>
<text text-anchor="middle" x="1870" y="-99.8" font-family="Times,serif" font-size="14.00">CreateProjectComponent</text>
</g>
<!-- CreateProjectComponent&#45;&gt;AppModule -->
<g id="edge2" class="edge">
<title>CreateProjectComponent&#45;&gt;AppModule</title>
<path fill="none" stroke="black" d="M1870,-122.22C1870,-142.37 1870,-172 1870,-172 1870,-172 1260.85,-172 1260.85,-172"/>
<polygon fill="black" stroke="black" points="1260.85,-168.5 1250.85,-172 1260.85,-175.5 1260.85,-168.5"/>
</g>
<!-- DashboardComponent -->
<g id="node3" class="node">
<title>DashboardComponent</title>
<polygon fill="#ffffb3" stroke="black" points="1772.97,-122 1631.03,-122 1631.03,-86 1772.97,-86 1772.97,-122"/>
<text text-anchor="middle" x="1702" y="-99.8" font-family="Times,serif" font-size="14.00">DashboardComponent</text>
</g>
<!-- DashboardComponent&#45;&gt;AppModule -->
<g id="edge3" class="edge">
<title>DashboardComponent&#45;&gt;AppModule</title>
<path fill="none" stroke="black" d="M1702,-122.22C1702,-140.83 1702,-167 1702,-167 1702,-167 1261.03,-167 1261.03,-167"/>
<polygon fill="black" stroke="black" points="1261.03,-163.5 1251.03,-167 1261.03,-170.5 1261.03,-163.5"/>
</g>
<!-- FlnProjectButtonComponent -->
<g id="node4" class="node">
<title>FlnProjectButtonComponent</title>
<polygon fill="#ffffb3" stroke="black" points="1612.78,-122 1435.22,-122 1435.22,-86 1612.78,-86 1612.78,-122"/>
<text text-anchor="middle" x="1524" y="-99.8" font-family="Times,serif" font-size="14.00">FlnProjectButtonComponent</text>
</g>
<!-- FlnProjectButtonComponent&#45;&gt;AppModule -->
<g id="edge4" class="edge">
<title>FlnProjectButtonComponent&#45;&gt;AppModule</title>
<path fill="none" stroke="black" d="M1524,-122.03C1524,-139.06 1524,-162 1524,-162 1524,-162 1260.83,-162 1260.83,-162"/>
<polygon fill="black" stroke="black" points="1260.83,-158.5 1250.83,-162 1260.83,-165.5 1260.83,-158.5"/>
</g>
<!-- LoginComponent -->
<g id="node5" class="node">
<title>LoginComponent</title>
<polygon fill="#ffffb3" stroke="black" points="1417.28,-122 1302.72,-122 1302.72,-86 1417.28,-86 1417.28,-122"/>
<text text-anchor="middle" x="1360" y="-99.8" font-family="Times,serif" font-size="14.00">LoginComponent</text>
</g>
<!-- LoginComponent&#45;&gt;AppModule -->
<g id="edge5" class="edge">
<title>LoginComponent&#45;&gt;AppModule</title>
<path fill="none" stroke="black" d="M1360,-122.24C1360,-137.57 1360,-157 1360,-157 1360,-157 1260.66,-157 1260.66,-157"/>
<polygon fill="black" stroke="black" points="1260.66,-153.5 1250.66,-157 1260.66,-160.5 1260.66,-153.5"/>
</g>
<!-- MarketplaceComponent -->
<g id="node6" class="node">
<title>MarketplaceComponent</title>
<polygon fill="#ffffb3" stroke="black" points="1284.79,-122 1133.21,-122 1133.21,-86 1284.79,-86 1284.79,-122"/>
<text text-anchor="middle" x="1209" y="-99.8" font-family="Times,serif" font-size="14.00">MarketplaceComponent</text>
</g>
<!-- MarketplaceComponent&#45;&gt;AppModule -->
<g id="edge6" class="edge">
<title>MarketplaceComponent&#45;&gt;AppModule</title>
<path fill="none" stroke="black" d="M1209,-122.11C1209,-122.11 1209,-140.99 1209,-140.99"/>
<polygon fill="black" stroke="black" points="1205.5,-140.99 1209,-150.99 1212.5,-140.99 1205.5,-140.99"/>
</g>
<!-- RegistrationComponent -->
<g id="node7" class="node">
<title>RegistrationComponent</title>
<polygon fill="#ffffb3" stroke="black" points="1114.77,-122 965.23,-122 965.23,-86 1114.77,-86 1114.77,-122"/>
<text text-anchor="middle" x="1040" y="-99.8" font-family="Times,serif" font-size="14.00">RegistrationComponent</text>
</g>
<!-- RegistrationComponent&#45;&gt;AppModule -->
<g id="edge7" class="edge">
<title>RegistrationComponent&#45;&gt;AppModule</title>
<path fill="none" stroke="black" d="M1040,-122.24C1040,-137.57 1040,-157 1040,-157 1040,-157 1157.22,-157 1157.22,-157"/>
<polygon fill="black" stroke="black" points="1157.22,-160.5 1167.22,-157 1157.22,-153.5 1157.22,-160.5"/>
</g>
<!-- RegistrationConfirmationComponent -->
<g id="node8" class="node">
<title>RegistrationConfirmationComponent</title>
<polygon fill="#ffffb3" stroke="black" points="947.7,-122 722.3,-122 722.3,-86 947.7,-86 947.7,-122"/>
<text text-anchor="middle" x="835" y="-99.8" font-family="Times,serif" font-size="14.00">RegistrationConfirmationComponent</text>
</g>
<!-- RegistrationConfirmationComponent&#45;&gt;AppModule -->
<g id="edge8" class="edge">
<title>RegistrationConfirmationComponent&#45;&gt;AppModule</title>
<path fill="none" stroke="black" d="M835,-122.03C835,-139.06 835,-162 835,-162 835,-162 1157.19,-162 1157.19,-162"/>
<polygon fill="black" stroke="black" points="1157.19,-165.5 1167.19,-162 1157.19,-158.5 1157.19,-165.5"/>
</g>
<!-- ResourceListComponent -->
<g id="node9" class="node">
<title>ResourceListComponent</title>
<polygon fill="#ffffb3" stroke="black" points="704.7,-122 549.3,-122 549.3,-86 704.7,-86 704.7,-122"/>
<text text-anchor="middle" x="627" y="-99.8" font-family="Times,serif" font-size="14.00">ResourceListComponent</text>
</g>
<!-- ResourceListComponent&#45;&gt;AppModule -->
<g id="edge9" class="edge">
<title>ResourceListComponent&#45;&gt;AppModule</title>
<path fill="none" stroke="black" d="M627,-122.22C627,-140.83 627,-167 627,-167 627,-167 1157.14,-167 1157.14,-167"/>
<polygon fill="black" stroke="black" points="1157.14,-170.5 1167.14,-167 1157.14,-163.5 1157.14,-170.5"/>
</g>
<!-- UploadResourceComponent -->
<g id="node10" class="node">
<title>UploadResourceComponent</title>
<polygon fill="#ffffb3" stroke="black" points="531.13,-122 356.87,-122 356.87,-86 531.13,-86 531.13,-122"/>
<text text-anchor="middle" x="444" y="-99.8" font-family="Times,serif" font-size="14.00">UploadResourceComponent</text>
</g>
<!-- UploadResourceComponent&#45;&gt;AppModule -->
<g id="edge10" class="edge">
<title>UploadResourceComponent&#45;&gt;AppModule</title>
<path fill="none" stroke="black" d="M444,-122.22C444,-142.37 444,-172 444,-172 444,-172 1157.33,-172 1157.33,-172"/>
<polygon fill="black" stroke="black" points="1157.33,-175.5 1167.33,-172 1157.33,-168.5 1157.33,-175.5"/>
</g>
<!-- UserWalletComponent -->
<g id="node11" class="node">
<title>UserWalletComponent</title>
<polygon fill="#ffffb3" stroke="black" points="338.57,-122 193.43,-122 193.43,-86 338.57,-86 338.57,-122"/>
<text text-anchor="middle" x="266" y="-99.8" font-family="Times,serif" font-size="14.00">UserWalletComponent</text>
</g>
<!-- UserWalletComponent&#45;&gt;AppModule -->
<g id="edge11" class="edge">
<title>UserWalletComponent&#45;&gt;AppModule</title>
<path fill="none" stroke="black" d="M266,-122.04C266,-143.66 266,-177 266,-177 266,-177 1157.26,-177 1157.26,-177"/>
<polygon fill="black" stroke="black" points="1157.26,-180.5 1167.26,-177 1157.26,-173.5 1157.26,-180.5"/>
</g>
<!-- VerifyEmailComponent -->
<g id="node12" class="node">
<title>VerifyEmailComponent</title>
<polygon fill="#ffffb3" stroke="black" points="175.8,-122 24.2,-122 24.2,-86 175.8,-86 175.8,-122"/>
<text text-anchor="middle" x="100" y="-99.8" font-family="Times,serif" font-size="14.00">VerifyEmailComponent</text>
</g>
<!-- VerifyEmailComponent&#45;&gt;AppModule -->
<g id="edge12" class="edge">
<title>VerifyEmailComponent&#45;&gt;AppModule</title>
<path fill="none" stroke="black" d="M100,-122.09C100,-145.13 100,-182 100,-182 100,-182 1157.22,-182 1157.22,-182"/>
<polygon fill="black" stroke="black" points="1157.22,-185.5 1167.22,-182 1157.22,-178.5 1157.22,-185.5"/>
</g>
<!-- AppComponent  -->
<g id="node15" class="node">
<title>AppComponent </title>
<polygon fill="#80b1d3" stroke="black" points="1263.44,-252 1154.56,-252 1154.56,-216 1263.44,-216 1263.44,-252"/>
<text text-anchor="middle" x="1209" y="-229.8" font-family="Times,serif" font-size="14.00">AppComponent </text>
</g>
<!-- AppModule&#45;&gt;AppComponent  -->
<g id="edge14" class="edge">
<title>AppModule&#45;&gt;AppComponent </title>
<path fill="none" stroke="black" stroke-dasharray="1,5" d="M1209,-187.11C1209,-187.11 1209,-205.99 1209,-205.99"/>
<polygon fill="black" stroke="black" points="1205.5,-205.99 1209,-215.99 1212.5,-205.99 1205.5,-205.99"/>
</g>
<!-- AppRoutingModule -->
<g id="node14" class="node">
<title>AppRoutingModule</title>
<polygon fill="#8dd3c7" stroke="black" points="2224.27,-122 2221.27,-126 2200.27,-126 2197.27,-122 2095.73,-122 2095.73,-86 2224.27,-86 2224.27,-122"/>
<text text-anchor="middle" x="2160" y="-99.8" font-family="Times,serif" font-size="14.00">AppRoutingModule</text>
</g>
<!-- AppRoutingModule&#45;&gt;AppModule -->
<g id="edge13" class="edge">
<title>AppRoutingModule&#45;&gt;AppModule</title>
<path fill="none" stroke="black" d="M2160,-122.09C2160,-145.13 2160,-182 2160,-182 2160,-182 1260.78,-182 1260.78,-182"/>
<polygon fill="black" stroke="black" points="1260.78,-178.5 1250.78,-182 1260.78,-185.5 1260.78,-178.5"/>
</g>
</g>
</svg>
