<?xml version="1.0" encoding="UTF-8" standalone="no"?>
<!DOCTYPE svg PUBLIC "-//W3C//DTD SVG 1.1//EN"
 "http://www.w3.org/Graphics/SVG/1.1/DTD/svg11.dtd">
<!-- Generated by graphviz version 2.47.0 (20210316.0004)
 -->
<!-- Title: dependencies Pages: 1 -->
<svg width="2256pt" height="284pt"
 viewBox="0.00 0.00 2256.00 284.00" xmlns="http://www.w3.org/2000/svg" xmlns:xlink="http://www.w3.org/1999/xlink">
<g id="graph0" class="graph" transform="scale(1 1) rotate(0) translate(4 280)">
<title>dependencies</title>
<polygon fill="white" stroke="transparent" points="-4,4 -4,-280 2252,-280 2252,4 -4,4"/>
<text text-anchor="start" x="1103.01" y="-42.4" font-family="Times-12" font-weight="bold" font-size="14.00">Legend</text>
<polygon fill="#ffffb3" stroke="transparent" points="890,-10 890,-30 910,-30 910,-10 890,-10"/>
<text text-anchor="start" x="913.63" y="-15.4" font-family="Times-12" font-size="14.00"> &#160;Declarations</text>
<polygon fill="#8dd3c7" stroke="transparent" points="1003,-10 1003,-30 1023,-30 1023,-10 1003,-10"/>
<text text-anchor="start" x="1026.73" y="-15.4" font-family="Times-12" font-size="14.00"> &#160;Module</text>
<polygon fill="#80b1d3" stroke="transparent" points="1089,-10 1089,-30 1109,-30 1109,-10 1089,-10"/>
<text text-anchor="start" x="1112.78" y="-15.4" font-family="Times-12" font-size="14.00"> &#160;Bootstrap</text>
<polygon fill="#fdb462" stroke="transparent" points="1186,-10 1186,-30 1206,-30 1206,-10 1186,-10"/>
<text text-anchor="start" x="1209.67" y="-15.4" font-family="Times-12" font-size="14.00"> &#160;Providers</text>
<polygon fill="#fb8072" stroke="transparent" points="1282,-10 1282,-30 1302,-30 1302,-10 1282,-10"/>
<text text-anchor="start" x="1305.73" y="-15.4" font-family="Times-12" font-size="14.00"> &#160;Exports</text>
<g id="clust1" class="cluster">
<title>cluster_AppModule</title>
<polygon fill="none" stroke="black" stroke-dasharray="1,5" points="8,-70 8,-268 2240,-268 2240,-70 8,-70"/>
</g>
<g id="clust2" class="cluster">
<title>cluster_AppModule_declarations</title>
<polygon fill="none" stroke="black" points="168,-78 168,-130 2232,-130 2232,-78 168,-78"/>
</g>
<g id="clust15" class="cluster">
<title>cluster_AppModule_imports</title>
<polygon fill="none" stroke="black" points="16,-78 16,-130 160,-130 160,-78 16,-78"/>
</g>
<g id="clust17" class="cluster">
<title>cluster_AppModule_bootstrap</title>
<polygon fill="none" stroke="black" points="1130,-208 1130,-260 1254,-260 1254,-208 1130,-208"/>
</g>
<!-- AppComponent -->
<g id="node1" class="node">
<title>AppComponent</title>
<polygon fill="#ffffb3" stroke="black" points="2223.94,-122 2118.06,-122 2118.06,-86 2223.94,-86 2223.94,-122"/>
<text text-anchor="middle" x="2171" y="-99.8" font-family="Times,serif" font-size="14.00">AppComponent</text>
</g>
<!-- AppModule -->
<g id="node13" class="node">
<title>AppModule</title>
<polygon fill="#8dd3c7" stroke="black" points="1233.66,-187 1230.66,-191 1209.66,-191 1206.66,-187 1150.34,-187 1150.34,-151 1233.66,-151 1233.66,-187"/>
<text text-anchor="middle" x="1192" y="-164.8" font-family="Times,serif" font-size="14.00">AppModule</text>
</g>
<!-- AppComponent&#45;&gt;AppModule -->
<g id="edge1" class="edge">
<title>AppComponent&#45;&gt;AppModule</title>
<path fill="none" stroke="black" d="M2171,-122.09C2171,-145.13 2171,-182 2171,-182 2171,-182 1243.75,-182 1243.75,-182"/>
<polygon fill="black" stroke="black" points="1243.75,-178.5 1233.75,-182 1243.75,-185.5 1243.75,-178.5"/>
</g>
<!-- CreateProjectComponent -->
<g id="node2" class="node">
<title>CreateProjectComponent</title>
<polygon fill="#ffffb3" stroke="black" points="2100.52,-122 1943.48,-122 1943.48,-86 2100.52,-86 2100.52,-122"/>
<text text-anchor="middle" x="2022" y="-99.8" font-family="Times,serif" font-size="14.00">CreateProjectComponent</text>
</g>
<!-- CreateProjectComponent&#45;&gt;AppModule -->
<g id="edge2" class="edge">
<title>CreateProjectComponent&#45;&gt;AppModule</title>
<path fill="none" stroke="black" d="M2022,-122.04C2022,-143.66 2022,-177 2022,-177 2022,-177 1243.73,-177 1243.73,-177"/>
<polygon fill="black" stroke="black" points="1243.73,-173.5 1233.73,-177 1243.73,-180.5 1243.73,-173.5"/>
</g>
<!-- DashboardComponent -->
<g id="node3" class="node">
<title>DashboardComponent</title>
<polygon fill="#ffffb3" stroke="black" points="1924.97,-122 1783.03,-122 1783.03,-86 1924.97,-86 1924.97,-122"/>
<text text-anchor="middle" x="1854" y="-99.8" font-family="Times,serif" font-size="14.00">DashboardComponent</text>
</g>
<!-- DashboardComponent&#45;&gt;AppModule -->
<g id="edge3" class="edge">
<title>DashboardComponent&#45;&gt;AppModule</title>
<path fill="none" stroke="black" d="M1854,-122.22C1854,-142.37 1854,-172 1854,-172 1854,-172 1243.66,-172 1243.66,-172"/>
<polygon fill="black" stroke="black" points="1243.66,-168.5 1233.66,-172 1243.66,-175.5 1243.66,-168.5"/>
</g>
<!-- FlnProjectButtonComponent -->
<g id="node4" class="node">
<title>FlnProjectButtonComponent</title>
<polygon fill="#ffffb3" stroke="black" points="1764.78,-122 1587.22,-122 1587.22,-86 1764.78,-86 1764.78,-122"/>
<text text-anchor="middle" x="1676" y="-99.8" font-family="Times,serif" font-size="14.00">FlnProjectButtonComponent</text>
</g>
<!-- FlnProjectButtonComponent&#45;&gt;AppModule -->
<g id="edge4" class="edge">
<title>FlnProjectButtonComponent&#45;&gt;AppModule</title>
<path fill="none" stroke="black" d="M1676,-122.22C1676,-140.83 1676,-167 1676,-167 1676,-167 1243.68,-167 1243.68,-167"/>
<polygon fill="black" stroke="black" points="1243.68,-163.5 1233.68,-167 1243.68,-170.5 1243.68,-163.5"/>
</g>
<!-- LoginComponent -->
<g id="node5" class="node">
<title>LoginComponent</title>
<polygon fill="#ffffb3" stroke="black" points="1569.28,-122 1454.72,-122 1454.72,-86 1569.28,-86 1569.28,-122"/>
<text text-anchor="middle" x="1512" y="-99.8" font-family="Times,serif" font-size="14.00">LoginComponent</text>
</g>
<!-- LoginComponent&#45;&gt;AppModule -->
<g id="edge5" class="edge">
<title>LoginComponent&#45;&gt;AppModule</title>
<path fill="none" stroke="black" d="M1512,-122.03C1512,-139.06 1512,-162 1512,-162 1512,-162 1243.83,-162 1243.83,-162"/>
<polygon fill="black" stroke="black" points="1243.83,-158.5 1233.83,-162 1243.83,-165.5 1243.83,-158.5"/>
</g>
<!-- MarketplaceComponent -->
<g id="node6" class="node">
<title>MarketplaceComponent</title>
<polygon fill="#ffffb3" stroke="black" points="1436.79,-122 1285.21,-122 1285.21,-86 1436.79,-86 1436.79,-122"/>
<text text-anchor="middle" x="1361" y="-99.8" font-family="Times,serif" font-size="14.00">MarketplaceComponent</text>
</g>
<!-- MarketplaceComponent&#45;&gt;AppModule -->
<g id="edge6" class="edge">
<title>MarketplaceComponent&#45;&gt;AppModule</title>
<path fill="none" stroke="black" d="M1361,-122.24C1361,-137.57 1361,-157 1361,-157 1361,-157 1243.78,-157 1243.78,-157"/>
<polygon fill="black" stroke="black" points="1243.78,-153.5 1233.78,-157 1243.78,-160.5 1243.78,-153.5"/>
</g>
<!-- RegistrationComponent -->
<g id="node7" class="node">
<title>RegistrationComponent</title>
<polygon fill="#ffffb3" stroke="black" points="1266.77,-122 1117.23,-122 1117.23,-86 1266.77,-86 1266.77,-122"/>
<text text-anchor="middle" x="1192" y="-99.8" font-family="Times,serif" font-size="14.00">RegistrationComponent</text>
</g>
<!-- RegistrationComponent&#45;&gt;AppModule -->
<g id="edge7" class="edge">
<title>RegistrationComponent&#45;&gt;AppModule</title>
<path fill="none" stroke="black" d="M1192,-122.11C1192,-122.11 1192,-140.99 1192,-140.99"/>
<polygon fill="black" stroke="black" points="1188.5,-140.99 1192,-150.99 1195.5,-140.99 1188.5,-140.99"/>
</g>
<!-- RegistrationConfirmationComponent -->
<g id="node8" class="node">
<title>RegistrationConfirmationComponent</title>
<polygon fill="#ffffb3" stroke="black" points="1099.7,-122 874.3,-122 874.3,-86 1099.7,-86 1099.7,-122"/>
<text text-anchor="middle" x="987" y="-99.8" font-family="Times,serif" font-size="14.00">RegistrationConfirmationComponent</text>
</g>
<!-- RegistrationConfirmationComponent&#45;&gt;AppModule -->
<g id="edge8" class="edge">
<title>RegistrationConfirmationComponent&#45;&gt;AppModule</title>
<path fill="none" stroke="black" d="M987,-122.24C987,-137.57 987,-157 987,-157 987,-157 1140.02,-157 1140.02,-157"/>
<polygon fill="black" stroke="black" points="1140.02,-160.5 1150.02,-157 1140.02,-153.5 1140.02,-160.5"/>
</g>
<!-- ResourceListComponent -->
<g id="node9" class="node">
<title>ResourceListComponent</title>
<polygon fill="#ffffb3" stroke="black" points="856.7,-122 701.3,-122 701.3,-86 856.7,-86 856.7,-122"/>
<text text-anchor="middle" x="779" y="-99.8" font-family="Times,serif" font-size="14.00">ResourceListComponent</text>
</g>
<!-- ResourceListComponent&#45;&gt;AppModule -->
<g id="edge9" class="edge">
<title>ResourceListComponent&#45;&gt;AppModule</title>
<path fill="none" stroke="black" d="M779,-122.03C779,-139.06 779,-162 779,-162 779,-162 1140.13,-162 1140.13,-162"/>
<polygon fill="black" stroke="black" points="1140.13,-165.5 1150.13,-162 1140.13,-158.5 1140.13,-165.5"/>
</g>
<!-- UploadResourceComponent -->
<g id="node10" class="node">
<title>UploadResourceComponent</title>
<polygon fill="#ffffb3" stroke="black" points="683.13,-122 508.87,-122 508.87,-86 683.13,-86 683.13,-122"/>
<text text-anchor="middle" x="596" y="-99.8" font-family="Times,serif" font-size="14.00">UploadResourceComponent</text>
</g>
<!-- UploadResourceComponent&#45;&gt;AppModule -->
<g id="edge10" class="edge">
<title>UploadResourceComponent&#45;&gt;AppModule</title>
<path fill="none" stroke="black" d="M596,-122.22C596,-140.83 596,-167 596,-167 596,-167 1140.09,-167 1140.09,-167"/>
<polygon fill="black" stroke="black" points="1140.09,-170.5 1150.09,-167 1140.09,-163.5 1140.09,-170.5"/>
</g>
<!-- UserWalletComponent -->
<g id="node11" class="node">
<title>UserWalletComponent</title>
<polygon fill="#ffffb3" stroke="black" points="490.57,-122 345.43,-122 345.43,-86 490.57,-86 490.57,-122"/>
<text text-anchor="middle" x="418" y="-99.8" font-family="Times,serif" font-size="14.00">UserWalletComponent</text>
</g>
<!-- UserWalletComponent&#45;&gt;AppModule -->
<g id="edge11" class="edge">
<title>UserWalletComponent&#45;&gt;AppModule</title>
<path fill="none" stroke="black" d="M418,-122.22C418,-142.37 418,-172 418,-172 418,-172 1140.11,-172 1140.11,-172"/>
<polygon fill="black" stroke="black" points="1140.11,-175.5 1150.11,-172 1140.11,-168.5 1140.11,-175.5"/>
</g>
<!-- VerifyEmailComponent -->
<g id="node12" class="node">
<title>VerifyEmailComponent</title>
<polygon fill="#ffffb3" stroke="black" points="327.8,-122 176.2,-122 176.2,-86 327.8,-86 327.8,-122"/>
<text text-anchor="middle" x="252" y="-99.8" font-family="Times,serif" font-size="14.00">VerifyEmailComponent</text>
</g>
<!-- VerifyEmailComponent&#45;&gt;AppModule -->
<g id="edge12" class="edge">
<title>VerifyEmailComponent&#45;&gt;AppModule</title>
<path fill="none" stroke="black" d="M252,-122.04C252,-143.66 252,-177 252,-177 252,-177 1140.09,-177 1140.09,-177"/>
<polygon fill="black" stroke="black" points="1140.09,-180.5 1150.09,-177 1140.09,-173.5 1140.09,-180.5"/>
</g>
<!-- AppComponent  -->
<g id="node15" class="node">
<title>AppComponent </title>
<polygon fill="#80b1d3" stroke="black" points="1246.44,-252 1137.56,-252 1137.56,-216 1246.44,-216 1246.44,-252"/>
<text text-anchor="middle" x="1192" y="-229.8" font-family="Times,serif" font-size="14.00">AppComponent </text>
</g>
<!-- AppModule&#45;&gt;AppComponent  -->
<g id="edge14" class="edge">
<title>AppModule&#45;&gt;AppComponent </title>
<path fill="none" stroke="black" stroke-dasharray="1,5" d="M1192,-187.11C1192,-187.11 1192,-205.99 1192,-205.99"/>
<polygon fill="black" stroke="black" points="1188.5,-205.99 1192,-215.99 1195.5,-205.99 1188.5,-205.99"/>
</g>
<!-- AppRoutingModule -->
<g id="node14" class="node">
<title>AppRoutingModule</title>
<polygon fill="#8dd3c7" stroke="black" points="152.27,-122 149.27,-126 128.27,-126 125.27,-122 23.73,-122 23.73,-86 152.27,-86 152.27,-122"/>
<text text-anchor="middle" x="88" y="-99.8" font-family="Times,serif" font-size="14.00">AppRoutingModule</text>
</g>
<!-- AppRoutingModule&#45;&gt;AppModule -->
<g id="edge13" class="edge">
<title>AppRoutingModule&#45;&gt;AppModule</title>
<path fill="none" stroke="black" d="M88,-122.09C88,-145.13 88,-182 88,-182 88,-182 1140.07,-182 1140.07,-182"/>
<polygon fill="black" stroke="black" points="1140.07,-185.5 1150.07,-182 1140.07,-178.5 1140.07,-185.5"/>
</g>
</g>
</svg>
